<?xml version="1.0" encoding="utf-8" standalone="yes"?>
<!DOCTYPE svg PUBLIC "-//W3C//DTD SVG 1.1//EN" "http://www.w3.org/Graphics/SVG/1.1/DTD/svg11.dtd">
<svg width="828" height="654" viewBox="0 0 828 654" style="fill:none;stroke:none;fill-rule:evenodd;clip-rule:evenodd;stroke-linecap:round;stroke-linejoin:round;stroke-miterlimit:1.5;" version="1.1" xmlns="http://www.w3.org/2000/svg" xmlns:xlink="http://www.w3.org/1999/xlink"><style class="text-font-style fontImports" data-font-family="Roboto">@import url('https://fonts.googleapis.com/css2?family=Roboto:wght@400;700&amp;display=block');</style><rect id="" x="0" y="0" width="827.21" height="653.067" style="fill: #2c2c2c;"></rect><g id="items" style="isolation: isolate"><g id="blend" style="mix-blend-mode: normal"><g id="g-root-tf_1hegxps1dg28ss-fill" data-item-order="-537267" transform="translate(-9, -9)"><g id="tf_1hegxps1dg28ss-fill" stroke="none" fill="#2c2c2c"><g><path d="M 9.995103 10L 835.205103 10L 835.205103 661.07L 9.995103 661.07Z"></path></g></g></g><g id="g-root-0d.cu_sy_zs6pww1dfv5kx-fill" data-item-order="-218047" transform="translate(15.481704711914062, 394.7597961425781)"><g id="0d.cu_sy_zs6pww1dfv5kx-fill" stroke="none" fill="#ababab"><g><path d="M 19.312079 169.973L 42.463879 169.973C 43.597079 169.973 44.633579 169.334 45.143279 168.322L 112.527979 34.5096C 106.811179 29.8033 101.340779 24.6548 96.164279 19.0975L 19.312079 169.973ZM 11.933079 167.162L 19.312079 169.973L 96.164279 19.0975C 93.443279 16.1764 90.803479 13.1423 88.251779 10L 10.327779 162.997C 9.518279 164.586 10.266179 166.527 11.933079 167.162ZM 98.137779 206.901L 105.312479 208.714C 105.312479 208.714 107.399979 209.14 108.373779 209.223L 142.926979 54.1986C 138.741979 52.1455 134.627979 49.8799 130.597979 47.4112L 95.944379 203.341C 95.592179 204.926 96.564179 206.503 98.137779 206.901ZM 108.373779 209.223C 109.347579 209.307 111.550979 209.067 111.550979 209.067L 132.499979 206.449C 133.757979 206.292 134.781979 205.36 135.056979 204.123L 144.645979 160.973L 151.090979 131.973L 166.367979 63.2307C 158.372979 60.9587 150.532979 57.9294 142.926979 54.1986L 108.373779 209.223ZM 287.783979 142.229L 280.140979 123.503C 279.646979 122.294 278.427979 121.543 277.125979 121.646L 271.614979 122.082L 151.090979 131.973L 144.645979 160.973L 281.792979 146.677L 285.285979 146.35C 287.289979 146.162 288.544979 144.093 287.783979 142.229ZM 299.101979 183.168L 309.924979 184.271L 257.405979 57.3543L 246.097979 60.4166L 271.614979 122.082L 277.125979 121.646C 278.427979 121.543 279.646979 122.294 280.140979 123.503L 287.783979 142.229C 288.544979 144.093 287.289979 146.162 285.285979 146.35L 281.792979 146.677L 295.812979 180.756C 296.235979 181.778 297.421979 182.938 299.101979 183.168ZM 309.924979 184.271L 328.402979 181.961C 330.369979 181.715 331.561979 179.664 330.801979 177.834L 278.161979 51.0183C 274.073979 52.6109 269.870979 53.9915 265.556979 55.1473L 265.552979 55.1485L 265.498979 55.1628L 257.405979 57.3543L 309.924979 184.271Z"></path></g></g></g><g id="g-root-0c.cu_sy_dl37ao1dfv7yi-fill" data-item-order="-218043" transform="translate(104.87716674804688, 135.26174926757812)"><g id="0c.cu_sy_dl37ao1dfv7yi-fill" stroke="none" fill="#ababab"><g><path d="M 250.836022 206.141977C 239.314022 247.936977 210.373022 281.027977 170.439022 291.727977C 105.622622 309.095977 36.392522 260.899977 15.808822 184.080977C -4.774778 107.262177 31.082722 30.908877 95.898922 13.541477C 154.323022 -2.113223 216.334022 35.501077 243.071022 99.331877L 224.360022 106.664677C 201.725022 54.382277 150.462022 23.768277 102.111622 36.723677C 47.964822 51.232277 17.975422 114.888977 35.128422 178.904977C 52.281422 242.920977 110.081022 283.054977 164.228022 268.545977C 197.038022 259.754977 220.978022 232.916977 230.935022 198.888977L 250.836022 206.141977ZM 252.320022 200.296977C 255.605022 186.166977 256.939022 171.147977 256.086022 155.740977L 235.866022 155.740977C 236.520022 168.658977 235.326022 181.242977 232.484022 193.067977L 252.320022 200.296977ZM 211.877022 185.557977C 214.176022 176.117977 215.163022 166.065977 214.676022 155.740977L 194.463022 155.740977C 194.762022 163.586977 193.930022 171.211977 192.094022 178.347977L 211.877022 185.557977ZM 172.212022 171.102977C 173.611022 166.278977 174.310022 161.093977 174.216022 155.740977L 153.899022 155.740977C 153.768022 158.589977 153.183022 161.319977 152.200022 163.809977L 172.212022 171.102977ZM 149.225022 169.111977L 170.183022 176.748977C 165.458022 187.655977 156.831022 195.988977 145.591022 198.999977C 123.986022 204.788977 100.909322 188.723977 94.048122 163.117977C 87.186922 137.511977 99.139422 112.060977 120.745022 106.271377C 138.400022 101.540677 157.038022 111.403977 167.007022 129.140977L 147.504022 136.783977C 142.216022 130.546977 134.421022 127.453977 126.957022 129.453977C 116.021022 132.383977 109.936122 145.138977 113.367022 157.941977C 116.797022 170.744977 128.444022 178.747977 139.380022 175.817977C 143.391022 174.742977 146.749022 172.346977 149.225022 169.111977ZM 150.894022 141.899977C 151.752022 143.586977 152.454022 145.403977 152.970022 147.329977C 153.185022 148.134977 153.363022 148.938977 153.505022 149.740977L 173.782022 149.740977C 173.463022 147.225977 172.968022 144.690977 172.288022 142.153977C 171.580022 139.510977 170.699022 136.969977 169.665022 134.543977L 150.894022 141.899977ZM 188.359022 127.216977C 189.616022 130.352977 190.704022 133.609977 191.607022 136.976977C 192.751022 141.247977 193.548022 145.515977 194.016022 149.740977L 214.230022 149.740977C 213.626022 143.806977 212.534022 137.804977 210.925022 131.799977C 209.828022 127.706977 208.525022 123.735977 207.032022 119.899977L 188.359022 127.216977ZM 204.707022 114.366977C 186.258022 73.558077 145.906022 49.835077 107.838422 60.035377C 64.627722 71.613677 40.722722 122.515977 54.445122 173.728977C 68.167522 224.940977 114.321022 257.070977 157.532022 245.492977C 183.216022 238.610977 202.079022 217.835977 210.274022 191.359977L 190.359022 184.101977C 183.877022 202.762977 170.184022 217.256977 151.803022 222.182977C 119.528022 230.830977 85.021322 206.703977 74.729522 168.293977C 64.437722 129.884977 82.258422 91.737177 114.533022 83.089177C 142.286022 75.652777 171.690022 92.450877 185.928022 121.725977L 204.707022 114.366977ZM 226.625022 112.220977C 228.375022 116.788977 229.910022 121.507977 231.211022 126.364977C 233.309022 134.191977 234.701022 142.013977 235.431022 149.740977L 255.645022 149.740977C 254.779022 140.305977 253.091022 130.750977 250.529022 121.187977C 249.033022 115.604977 247.280022 110.172977 245.290022 104.906377L 226.625022 112.220977Z"></path></g></g></g><g id="g-root-0b.cu_sy_9kmo1dfwky3-fill" data-item-order="-218039" transform="translate(50.848876953125, 111.50387573242188)"><g id="0b.cu_sy_9kmo1dfwky3-fill" stroke="none" fill="#e45752"><g><path d="M 197.408992 347.279586C 121.656992 367.577586 40.779892 311.378586 16.765692 221.756586C -7.248508 132.133586 34.693392 43.026286 110.445992 22.728586L 143.226992 13.851586C 136.598992 15.627786 130.229992 17.934586 124.143992 20.725986C 60.920592 49.721986 28.124992 130.997586 50.030392 212.749586C 71.935392 294.500586 140.972992 348.489586 210.221992 341.991586C 216.888992 341.365586 223.557992 340.179586 230.185992 338.403586L 197.408992 347.279586ZM 324.742437 237.144023C 311.671437 286.708023 277.735437 326.060023 230.679437 338.668023C 155.194437 358.895023 74.533937 302.638023 50.519737 213.016023C 26.505437 123.394023 68.231137 34.343723 143.716637 14.117423C 212.211437 -4.235677 284.966437 40.383623 315.796437 115.762023L 297.099437 123.090023C 270.362437 59.258623 208.351437 21.644223 149.927437 37.299023C 85.111437 54.666423 49.253937 131.020023 69.837537 207.839023C 90.421137 284.658023 159.651437 332.853023 224.467437 315.486023C 264.401437 304.785023 293.342437 271.695023 304.864437 229.900023L 324.742437 237.144023ZM 326.180437 231.282023C 329.911437 214.848023 331.385437 197.396023 330.334437 179.499023L 310.115437 179.499023C 310.968437 194.906023 309.634437 209.925023 306.348437 224.055023L 326.180437 231.282023ZM 286.513437 216.826023C 289.354437 205.001023 290.548437 192.417023 289.894437 179.499023L 268.705437 179.499023C 269.191437 189.824023 268.204437 199.876023 265.905437 209.316023L 286.513437 216.826023ZM 246.122437 202.106023C 247.959437 194.970023 248.790437 187.345023 248.491437 179.499023L 228.244437 179.499023C 228.338437 184.851023 227.640437 190.037023 226.240437 194.861023L 246.122437 202.106023ZM 224.211437 200.507023L 244.387437 207.860023C 237.905437 226.521023 224.213437 241.015023 205.831437 245.940023C 173.557437 254.588023 139.050037 230.461023 128.758237 192.052023C 118.466437 153.642023 136.287037 115.495023 168.561437 106.846723C 196.314437 99.410223 225.718437 116.208023 239.956437 145.484023L 221.035437 152.899023C 211.066437 135.161023 192.428437 125.298023 174.773437 130.029023C 153.168437 135.818023 141.215637 161.269023 148.076437 186.876023C 154.938437 212.482023 178.014437 228.547023 199.620437 222.758023C 210.859437 219.746023 219.486437 211.414023 224.211437 200.507023ZM 206.228437 187.568023L 197.428437 184.361023C 195.872437 183.794023 194.150437 184.596023 193.583437 186.153023C 193.015437 187.709023 193.818437 189.431023 195.374437 189.998023L 203.253437 192.870023C 200.777437 196.105023 197.419437 198.501023 193.408437 199.576023C 182.472437 202.506023 170.826437 194.502023 167.395437 181.699023C 163.964437 168.896023 170.049437 156.141023 180.985437 153.211023C 188.449437 151.211023 196.245437 154.305023 201.532437 160.542023L 196.034437 162.697023C 194.491437 163.301023 193.730437 165.042023 194.335437 166.584023C 194.940437 168.127023 196.680437 168.887023 198.223437 168.283023L 204.923437 165.657023C 205.780437 167.345023 206.482437 169.162023 206.998437 171.088023C 207.214437 171.892023 207.392437 172.697023 207.533437 173.499023L 189.124437 173.499023C 187.467437 173.499023 186.124437 174.842023 186.124437 176.499023C 186.124437 178.156023 187.467437 179.499023 189.124437 179.499023L 207.927437 179.499023C 207.797437 182.348023 207.211437 185.078023 206.228437 187.568023ZM 227.811437 173.499023L 248.044437 173.499023C 247.576437 169.274023 246.779437 165.006023 245.635437 160.735023C 244.733437 157.368023 243.644437 154.110023 242.388437 150.975023L 223.693437 158.301023C 224.727437 160.727023 225.608437 163.268023 226.316437 165.911023C 226.996437 168.448023 227.491437 170.984023 227.811437 173.499023ZM 261.060437 143.657023C 262.553437 147.494023 263.857437 151.465023 264.953437 155.557023C 266.563437 161.563023 267.654437 167.564023 268.258437 173.499023L 289.459437 173.499023C 288.730437 165.771023 287.337437 157.949023 285.240437 150.122023C 283.938437 145.266023 282.403437 140.547023 280.653437 135.979023L 261.060437 143.657023ZM 278.388437 130.422023C 255.754437 78.139823 204.490437 47.525723 156.140437 60.481223C 101.993537 74.989823 72.004137 138.646023 89.157137 202.662023C 106.310137 266.678023 164.110437 306.812023 218.256437 292.303023C 251.066437 283.512023 275.006437 256.675023 284.963437 222.647023L 264.303437 215.118023C 256.107437 241.593023 237.244437 262.369023 211.560437 269.251023C 168.349437 280.829023 122.196237 248.699023 108.473837 197.486023C 94.751437 146.273023 118.656437 95.371123 161.867437 83.792823C 199.935437 73.592623 240.286437 97.315723 258.735437 138.124023L 278.388437 130.422023ZM 299.319437 128.664023C 301.308437 133.931023 303.061437 139.363023 304.557437 144.946023C 307.119437 154.508023 308.807437 164.064023 309.673437 173.499023L 329.888437 173.499023C 328.886437 162.356023 326.903437 151.068023 323.876437 139.770023C 322.185437 133.459023 320.214437 127.314023 317.983437 121.350023L 299.319437 128.664023Z"></path></g></g></g><g id="g-root-0a.cu_sy_1lpx48g1dfwmbw-fill" data-item-order="-218035" transform="translate(226.972900390625, 188.45315551757812)"><g id="0a.cu_sy_1lpx48g1dfwmbw-fill" stroke="none" fill="#ababab"><g><path d="M 17.459 109.203469C 18.0262 107.646669 19.748 106.844469 21.3047 107.411669L 227.346 182.498969C 228.903 183.065969 229.705 184.787969 229.138 186.344969C 228.571 187.901969 226.849 188.703969 225.292 188.136969L 19.2508 113.048969C 17.694 112.481969 16.8918 110.759969 17.459 109.203469ZM 216.553 11.906069C 217.157 13.448669 216.397 15.189369 214.854 15.793969L 22.0993 91.333669C 20.5567 91.938169 18.8161 91.177769 18.2115 89.635169C 17.6069 88.092569 18.3673 86.351869 19.91 85.747369L 212.665 10.207669C 214.208 9.603069 215.948 10.363469 216.553 11.906069ZM 232.999 102.549469L 13 102.549469C 11.3432 102.549469 10 101.206369 10 99.549469C 9.999999 97.892669 11.3432 96.549469 13 96.549469L 232.999 96.549469C 234.656 96.549469 235.999 97.892569 235.999 99.549469C 235.999 101.206369 234.656 102.549469 232.999 102.549469Z"></path></g></g></g><g id="g-root-2.cu_sy_1haq3741dfwjyd-fill" data-item-order="-218031" transform="translate(413.472900390625, 260.0000305175781)"><g id="2.cu_sy_1haq3741dfwjyd-fill" stroke="none" fill="#4f91fc"><g><path d="M 20.1981 12.2519L 10 25L 39.9996 25L 49.4001 13.2494C 50.4477 11.9399 49.5153 10 47.8383 10L 24.8834 10C 23.0606 10 21.3367 10.8286 20.1981 12.2519ZM 20.1981 43.7481L 10 31L 39.9996 31L 49.4001 42.7506C 50.4477 44.0601 49.5153 46 47.8383 46L 24.8834 46C 23.0606 46 21.3367 45.1714 20.1981 43.7481Z"></path></g></g></g><g id="g-root-3.cu_sy_13z9kts1dfwlja-fill" data-item-order="-218027" transform="translate(406.465087890625, 338.5605773925781)"><g id="3.cu_sy_13z9kts1dfwlja-fill" stroke="none" fill="#ffe711"><g><path d="M 25.9967 10.875L 12.0521 19.364L 40.2408 29.6291L 53.0946 21.8044C 54.5271 20.9324 54.3148 18.7906 52.739 18.2168L 31.1697 10.3622C 29.457 9.7385 27.5536 9.9272 25.9967 10.875ZM 15.2204 40.4673L 10 24.9992L 38.1887 35.2643L 43.0009 49.5222C 43.5372 51.1111 41.9974 52.6149 40.4216 52.041L 18.8523 44.1864C 17.1396 43.5627 15.8033 42.1943 15.2204 40.4673Z"></path></g></g></g><g id="g-root-1.cu_sy_v3mkkw1dfwmbz-fill" data-item-order="-218023" transform="translate(394.373291015625, 174.59573364257812)"><g id="1.cu_sy_v3mkkw1dfwmbz-fill" stroke="none" fill="#43dd93"><g><path d="M 14.8381 22.332869L 10 37.924769L 37.9275 26.968969L 42.3873 12.596969C 42.8843 10.995269 41.308 9.529869 39.7468 10.142369L 18.3774 18.525469C 16.6805 19.191169 15.3783 20.592069 14.8381 22.332869ZM 26.3417 51.653869L 12.1924 43.510669L 40.1199 32.554769L 53.1624 40.060669C 54.6159 40.897169 54.4564 43.043569 52.8952 43.655969L 31.5258 52.039169C 29.829 52.704769 27.9215 52.563069 26.3417 51.653869Z"></path></g></g></g><g id="g-root-tx_document_qofjjk1dfwjyg-fill" data-item-order="0" transform="translate(263.971923828125, 39)"><g id="tx_document_qofjjk1dfwjyg-fill" stroke="none" fill="#f4f4f4"><g><text style="font: bold 20px Roboto, sans-serif; white-space: pre;" font-weight="bold" font-size="20px" font-family="Roboto, sans-serif"><tspan x="13.16" y="34" dominant-baseline="ideographic">Document Interaction Customization</tspan></text></g></g></g><g id="g-root-grap_1lt1ho01dfzf2a-fill" data-item-order="0" transform="translate(491.971923828125, 134.50003051757812)"></g><g id="g-root-tx_comprehe_8x5j1s1dfwmbm-fill" data-item-order="0" transform="translate(551.971923828125, 146.50003051757812)"><g id="tx_comprehe_8x5j1s1dfwmbm-fill" stroke="none" fill="#5080cd"><g><text style="font: bold 20px Roboto, sans-serif; white-space: pre;" font-weight="bold" font-size="20px" font-family="Roboto, sans-serif"><tspan x="12" y="34" dominant-baseline="ideographic">Comprehensive Analysis</tspan></text></g></g></g><g id="g-root-tx_detailed_dcz1681dfwljd-fill" data-item-order="0" transform="translate(552.210205078125, 182.82022094726562)"><g id="tx_detailed_dcz1681dfwljd-fill" stroke="none" fill="#dffff0"><g><text style="font: 15px Roboto, sans-serif; white-space: pre;" font-size="15px" font-family="Roboto, sans-serif"><tspan x="12" y="31" dominant-baseline="ideographic">Detailed insights and connections</tspan></text></g></g></g><g id="g-root-uneq_1umt2nk1dfzf9d-fill" data-item-order="0" transform="translate(491.971923828125, 254.49612426757812)"></g><g id="g-root-tx_moderate_1hbz1dc1dfwm4k-fill" data-item-order="0" transform="translate(551.971923828125, 266.5000305175781)"><g id="tx_moderate_1hbz1dc1dfwm4k-fill" stroke="none" fill="#ebf2ff"><g><text style="font: bold 20px Roboto, sans-serif; white-space: pre;" font-weight="bold" font-size="20px" font-family="Roboto, sans-serif"><tspan x="12" y="34" dominant-baseline="ideographic">Moderate Analysis</tspan></text></g></g></g><g id="g-root-tx_balanced_1unfjqo1dfwkjn-fill" data-item-order="0" transform="translate(552.210205078125, 302.8183898925781)"><g id="tx_balanced_1unfjqo1dfwkjn-fill" stroke="none" fill="#ebf2ff"><g><text style="font: 15px Roboto, sans-serif; white-space: pre;" font-size="15px" font-family="Roboto, sans-serif"><tspan x="12" y="31" dominant-baseline="ideographic">Balanced depth and breadth</tspan></text></g></g></g><g id="g-root-chec_hu1hgw1dfwmxb-fill" data-item-order="0" transform="translate(491.971923828125, 374.4902648925781)"></g><g id="g-root-tx_basicana_qpohps1dfwm4m-fill" data-item-order="0" transform="translate(551.971923828125, 386.5000305175781)"><g id="tx_basicana_qpohps1dfwm4m-fill" stroke="none" fill="#fffbd5"><g><text style="font: bold 20px Roboto, sans-serif; white-space: pre;" font-weight="bold" font-size="20px" font-family="Roboto, sans-serif"><tspan x="12" y="34" dominant-baseline="ideographic">Basic Analysis</tspan></text></g></g></g><g id="g-root-tx_quickstr_14150341dfwkjp-fill" data-item-order="0" transform="translate(552.210205078125, 422.8183898925781)"><g id="tx_quickstr_14150341dfwkjp-fill" stroke="none" fill="#fffbd5"><g><text style="font: 15px Roboto, sans-serif; white-space: pre;" font-size="15px" font-family="Roboto, sans-serif"><tspan x="12" y="31" dominant-baseline="ideographic">Quick, straightforward answers</tspan></text></g></g></g><g id="g-root-tf_1hegxps1dg28ss-stroke" data-item-order="-537267" transform="translate(-9, -9)"></g><g id="g-root-0d.cu_sy_zs6pww1dfv5kx-stroke" data-item-order="-218047" transform="translate(15.481704711914062, 394.7597961425781)"><g id="0d.cu_sy_zs6pww1dfv5kx-stroke" fill="none" stroke-linecap="round" stroke-linejoin="round" stroke-miterlimit="4" stroke="#2c2c2c" stroke-width="2"><g><path d="M 19.312079 169.9731L 42.463879 169.9731C 43.597079 169.9731 44.633579 169.3345 45.143279 168.3223L 112.527579 34.5096C 106.811179 29.8033 101.340779 24.6548 96.164279 19.0975L 19.312079 169.9731ZM 11.933079 167.162L 19.312079 169.9731L 96.164279 19.0975C 93.443279 16.1764 90.803479 13.1423 88.251779 10L 10.327779 162.997C 9.518279 164.5865 10.266179 166.527 11.933079 167.162ZM 98.137779 206.9008L 105.312479 208.7141C 105.312479 208.7141 107.399979 209.1396 108.373779 209.2233L 142.927379 54.1986C 138.741979 52.1455 134.627779 49.8799 130.597879 47.4112L 95.944379 203.3415C 95.592179 204.9259 96.564179 206.5031 98.137779 206.9008ZM 108.373779 209.2233C 109.347579 209.3069 111.550779 209.0675 111.550779 209.0675L 132.500379 206.4488C 133.758379 206.2915 134.781779 205.3604 135.056779 204.1228L 144.646279 160.9731L 151.091179 131.9731L 166.368279 63.2307C 158.373179 60.9587 150.532879 57.9294 142.927379 54.1986L 108.373779 209.2233ZM 287.783979 142.2293L 280.140579 123.503C 279.647079 122.2939 278.428179 121.543 277.126379 121.646L 271.615079 122.0822L 151.091179 131.9731L 144.646279 160.9731L 281.792479 146.677L 285.286079 146.3499C 287.290279 146.1623 288.544679 144.093 287.783979 142.2293ZM 299.102479 183.1681L 309.925079 184.2707L 257.406479 57.3543L 246.097479 60.4166L 271.615079 122.0822L 277.126379 121.646C 278.428179 121.543 279.647079 122.2939 280.140579 123.503L 287.783979 142.2293C 288.544679 144.093 287.290279 146.1623 285.286079 146.3499L 281.792479 146.677L 295.812779 180.7556C 296.235979 181.7784 297.421579 182.9379 299.102479 183.1681ZM 309.925079 184.2707L 328.403279 181.9609C 330.369679 181.7151 331.561679 179.6642 330.801979 177.834L 278.161479 51.0183C 274.074279 52.6109 269.870879 53.9915 265.557279 55.1473L 265.552979 55.1485L 265.499479 55.1628L 257.406479 57.3543L 309.925079 184.2707ZM 265.499479 55.1628C 265.517279 55.158 265.535079 55.1532 265.552979 55.1485"></path></g></g></g><g id="g-root-0c.cu_sy_dl37ao1dfv7yi-stroke" data-item-order="-218043" transform="translate(104.87716674804688, 135.26174926757812)"><g id="0c.cu_sy_dl37ao1dfv7yi-stroke" fill="none" stroke-linecap="round" stroke-linejoin="round" stroke-miterlimit="4" stroke="#2c2c2c" stroke-width="2"><g><path d="M 250.835722 206.141677C 239.314122 247.936977 210.372722 281.027877 170.438822 291.728077C 105.622622 309.095577 36.392422 260.900377 15.808822 184.081277C -4.774778 107.262177 31.082722 30.908877 95.898922 13.541477C 154.323022 -2.113223 216.333622 35.501077 243.070722 99.331877L 224.359622 106.664677C 201.725222 54.382277 150.462022 23.768277 102.111622 36.723677C 47.964822 51.232277 17.975422 114.888977 35.128422 178.904977C 52.281422 242.920877 110.081422 283.054477 164.228222 268.545877C 197.038222 259.754477 220.978422 232.917277 230.934822 198.889177L 250.835722 206.141677ZM 252.320022 200.296577C 255.605522 186.167177 256.939322 171.148477 256.086322 155.740877L 235.866122 155.740877C 236.520022 168.658877 235.325922 181.243077 232.484422 193.067877L 252.320022 200.296577ZM 211.876622 185.557777C 214.176122 176.118477 215.162722 166.065977 214.676522 155.740877L 194.462622 155.740877C 194.761722 163.586877 193.930522 171.211677 192.093722 178.348277L 211.876622 185.557777ZM 172.211922 171.102777C 173.611522 166.278577 174.309822 161.093577 174.216122 155.740877L 153.898822 155.740877C 153.768322 158.590077 153.182822 161.320277 152.200222 163.809977L 172.211922 171.102777ZM 149.224822 169.111677L 170.182922 176.749377C 165.457722 187.656477 156.830722 195.988777 145.591422 199.000277C 123.986122 204.789477 100.909322 188.724377 94.048122 163.118077C 87.186922 137.511677 99.139422 112.060577 120.744822 106.271377C 138.400122 101.540677 157.037922 111.403477 167.006822 129.140877L 147.504022 136.783977C 142.216122 130.547177 134.420922 127.453677 126.956622 129.453677C 116.020522 132.383977 109.936122 145.138477 113.366822 157.941677C 116.797422 170.744877 128.443822 178.748377 139.379922 175.818077C 143.390922 174.743377 146.749222 172.347177 149.224822 169.111677ZM 150.894522 141.899577C 151.751822 143.587277 152.453722 145.404377 152.969722 147.330077C 153.185322 148.134677 153.363322 148.939077 153.504922 149.740877L 173.782322 149.740877C 173.463022 147.225977 172.967922 144.690577 172.288122 142.153677C 171.580022 139.510777 170.699122 136.969577 169.664922 134.543477L 150.894522 141.899577ZM 188.359322 127.217277C 189.615922 130.352577 190.704322 133.610077 191.606622 136.977277C 192.751022 141.248477 193.547822 145.516377 194.015822 149.740877L 214.229922 149.740877C 213.626022 143.806777 212.534322 137.805477 210.925122 131.799877C 209.828422 127.707077 208.524622 123.736177 207.031722 119.899677L 188.359322 127.217277ZM 204.706822 114.366477C 186.258122 73.558077 145.906322 49.835077 107.838422 60.035377C 64.627722 71.613677 40.722722 122.515777 54.445122 173.728577C 68.167522 224.941277 114.321022 257.071377 157.531722 245.493077C 183.215922 238.611077 202.079322 217.835677 210.274422 191.359877L 190.358922 184.102077C 183.877422 202.763377 170.184422 217.257277 151.803022 222.182477C 119.528322 230.830477 85.021322 206.703977 74.729522 168.294377C 64.437722 129.884877 82.258422 91.737177 114.533122 83.089177C 142.286122 75.652777 171.689822 92.450877 185.927922 121.725877L 204.706822 114.366477ZM 226.625122 112.221077C 228.374922 116.789277 229.910122 121.508277 231.211422 126.364677C 233.308722 134.191877 234.701222 142.013677 235.430922 149.740877L 255.644822 149.740877C 254.778722 140.305777 253.091022 130.750677 250.528822 121.188277C 249.032822 115.605077 247.279822 110.172977 245.290222 104.906377L 226.625122 112.221077Z"></path></g></g></g><g id="g-root-0b.cu_sy_9kmo1dfwky3-stroke" data-item-order="-218039" transform="translate(50.848876953125, 111.50387573242188)"><g id="0b.cu_sy_9kmo1dfwky3-stroke" fill="none" stroke-linecap="round" stroke-linejoin="round" stroke-miterlimit="4" stroke="#2c2c2c" stroke-width="2"><g><path d="M 197.408792 347.279586C 121.656592 367.577386 40.779892 311.378686 16.765692 221.756386C -7.248508 132.134086 34.693392 43.026286 110.445592 22.728586L 143.227292 13.851586C 136.598592 15.627786 130.230192 17.934586 124.143792 20.725986C 60.920592 49.721986 28.124992 130.997886 50.030392 212.749986C 71.935392 294.500586 140.972892 348.489186 210.222392 341.991386C 216.889092 341.365786 223.557792 340.179686 230.186492 338.403786L 197.408792 347.279586ZM 230.190492 338.402686L 230.186492 338.403786M 324.742937 237.144023C 311.671637 286.707723 277.735037 326.060123 230.679837 338.668523C 155.194337 358.894723 74.533937 302.638223 50.519737 213.015823C 26.505437 123.393523 68.231137 34.343723 143.716637 14.117423C 212.211137 -4.235677 284.966537 40.383623 315.796137 115.762423L 297.099537 123.089523C 270.362437 59.258623 208.351837 21.644223 149.927637 37.299023C 85.111437 54.666423 49.253937 131.019723 69.837537 207.838823C 90.421137 284.657923 159.651337 332.853023 224.467437 315.485623C 264.401237 304.785423 293.342637 271.694723 304.864337 229.899623L 324.742937 237.144023ZM 326.180537 231.281923C 329.911137 214.848523 331.385537 197.395723 330.334337 179.498723L 310.115037 179.498723C 310.968037 194.906323 309.634137 209.925123 306.348537 224.054523L 326.180537 231.281923ZM 286.513037 216.825823C 289.354637 205.001023 290.548737 192.416723 289.894937 179.498723L 268.705237 179.498723C 269.191437 189.823923 268.204837 199.876423 265.905237 209.315823L 286.513037 216.825823ZM 246.122237 202.106323C 247.959137 194.969623 248.790437 187.344723 248.491337 179.498723L 228.244837 179.498723C 228.338437 184.851523 227.640137 190.036523 226.240437 194.860723L 246.122237 202.106323ZM 224.211437 200.507323L 244.387437 207.860023C 237.905837 226.521123 224.212937 241.014823 205.831737 245.940023C 173.557037 254.588023 139.050037 230.461523 128.758237 192.051923C 118.466437 153.642323 136.287037 115.494723 168.561737 106.846723C 196.314937 99.410223 225.718637 116.208423 239.956637 145.483523L 221.035637 152.898623C 211.066737 135.161023 192.428837 125.298223 174.773537 130.028923C 153.168137 135.818123 141.215637 161.269223 148.076837 186.875523C 154.938037 212.481923 178.014837 228.546923 199.620137 222.757823C 210.859237 219.746323 219.486137 211.414223 224.211437 200.507323ZM 206.228737 187.567923L 197.428737 184.360923C 195.871937 183.793723 194.150237 184.595923 193.583037 186.152723C 193.015837 187.709423 193.818037 189.431223 195.374837 189.998423L 203.253237 192.869523C 200.777637 196.104823 197.419437 198.500923 193.408637 199.575623C 182.472537 202.505923 170.826037 194.502423 167.395437 181.699223C 163.964837 168.896023 170.049237 156.141523 180.985337 153.211223C 188.449637 151.211123 196.244937 154.304723 201.532837 160.541623L 196.033937 162.696623C 194.491337 163.301223 193.730937 165.041823 194.335537 166.584423C 194.940037 168.127023 196.680737 168.887523 198.223337 168.282923L 204.923237 165.657223C 205.780637 167.344823 206.482437 169.161923 206.998437 171.087623C 207.214037 171.892323 207.392137 172.696823 207.533737 173.498723L 189.124037 173.498723C 187.467137 173.498723 186.124037 174.841923 186.124037 176.498723C 186.124037 178.155623 187.467137 179.498723 189.124037 179.498723L 207.927537 179.498723C 207.797037 182.348023 207.211437 185.078223 206.228737 187.567923ZM 227.811137 173.498723L 248.044537 173.498723C 247.576637 169.274123 246.779737 165.006123 245.635237 160.734823C 244.733037 157.367623 243.644737 154.110223 242.388037 150.974923L 223.693637 158.301223C 224.727837 160.727223 225.608737 163.268423 226.316837 165.911223C 226.996637 168.448223 227.491737 170.983723 227.811137 173.498723ZM 261.060537 143.657323C 262.553337 147.493723 263.857137 151.464623 264.953837 155.557423C 266.563037 161.563123 267.654737 167.564523 268.258637 173.498723L 289.459737 173.498723C 288.729937 165.771423 287.337437 157.949423 285.240137 150.122223C 283.938837 145.265823 282.403637 140.546823 280.653837 135.978823L 261.060537 143.657323ZM 278.388337 130.422323C 255.754037 78.139823 204.490737 47.525723 156.140337 60.481223C 101.993537 74.989823 72.004137 138.646523 89.157137 202.662423C 106.310137 266.678423 164.110137 306.812023 218.256937 292.303423C 251.066837 283.512023 275.006937 256.675023 284.963437 222.647123L 264.302937 215.117823C 256.107837 241.593423 237.244537 262.368623 211.560437 269.250623C 168.349637 280.828923 122.196237 248.698823 108.473837 197.486123C 94.751437 146.273323 118.656437 95.371123 161.867137 83.792823C 199.935037 73.592623 240.286937 97.315723 258.735637 138.124123L 278.388337 130.422323ZM 299.318937 128.664023C 301.308537 133.930623 303.061537 139.362623 304.557537 144.945823C 307.119737 154.508323 308.807437 164.063523 309.673537 173.498723L 329.888337 173.498723C 328.886437 162.356123 326.903837 151.067623 323.876737 139.770123C 322.185737 133.459523 320.214037 127.314323 317.983037 121.349723L 299.318937 128.664023Z"></path></g></g></g><g id="g-root-0a.cu_sy_1lpx48g1dfwmbw-stroke" data-item-order="-218035" transform="translate(226.972900390625, 188.45315551757812)"><g id="0a.cu_sy_1lpx48g1dfwmbw-stroke" fill="none" stroke-linecap="round" stroke-linejoin="round" stroke-miterlimit="4" stroke="#2c2c2c" stroke-width="2"><g><path d="M 17.459 109.203469C 18.0262 107.646669 19.748 106.844469 21.3047 107.411669L 227.3459 182.499169C 228.9026 183.066269 229.7049 184.788069 229.1377 186.344869C 228.5705 187.901569 226.8487 188.703869 225.292 188.136669L 19.2508 113.049169C 17.694 112.481969 16.8918 110.760169 17.459 109.203469ZM 216.5528 11.906069C 217.1574 13.448669 216.3969 15.189369 214.8543 15.793969L 22.0993 91.333669C 20.5567 91.938169 18.8161 91.177769 18.2115 89.635169C 17.6069 88.092569 18.3673 86.351869 19.9099 85.747369L 212.665 10.207669C 214.2076 9.603069 215.9482 10.363469 216.5528 11.906069ZM 232.999 102.549469L 13 102.549469C 11.3431 102.549469 10 101.206369 10 99.549469C 9.999999 97.892669 11.3431 96.549469 13 96.549469L 232.999 96.549469C 234.6559 96.549469 235.999 97.892569 235.999 99.549469C 235.999 101.206369 234.6559 102.549469 232.999 102.549469Z"></path></g></g></g><g id="g-root-2.cu_sy_1haq3741dfwjyd-stroke" data-item-order="-218031" transform="translate(413.472900390625, 260.0000305175781)"><g id="2.cu_sy_1haq3741dfwjyd-stroke" fill="none" stroke-linecap="round" stroke-linejoin="round" stroke-miterlimit="4" stroke="#2c2c2c" stroke-width="2"><g><path d="M 20.1981 12.2519L 10 25L 39.9996 25L 49.4001 13.2494C 50.4477 11.9399 49.5153 10 47.8383 10L 24.8834 10C 23.0606 10 21.3367 10.8286 20.1981 12.2519ZM 20.1981 43.7481L 10 31L 39.9996 31L 49.4001 42.7506C 50.4477 44.0601 49.5153 46 47.8383 46L 24.8834 46C 23.0606 46 21.3367 45.1714 20.1981 43.7481Z"></path></g></g></g><g id="g-root-3.cu_sy_13z9kts1dfwlja-stroke" data-item-order="-218027" transform="translate(406.465087890625, 338.5605773925781)"><g id="3.cu_sy_13z9kts1dfwlja-stroke" fill="none" stroke-linecap="round" stroke-linejoin="round" stroke-miterlimit="4" stroke="#2c2c2c" stroke-width="2"><g><path d="M 25.9967 10.875L 12.0521 19.364L 40.2408 29.6291L 53.0946 21.8044C 54.5271 20.9324 54.3148 18.7906 52.739 18.2168L 31.1697 10.3622C 29.457 9.7385 27.5536 9.9272 25.9967 10.875ZM 15.2204 40.4673L 10 24.9992L 38.1887 35.2643L 43.0009 49.5222C 43.5372 51.1111 41.9974 52.6149 40.4216 52.041L 18.8523 44.1864C 17.1396 43.5627 15.8033 42.1943 15.2204 40.4673Z"></path></g></g></g><g id="g-root-1.cu_sy_v3mkkw1dfwmbz-stroke" data-item-order="-218023" transform="translate(394.373291015625, 174.59573364257812)"><g id="1.cu_sy_v3mkkw1dfwmbz-stroke" fill="none" stroke-linecap="round" stroke-linejoin="round" stroke-miterlimit="4" stroke="#2c2c2c" stroke-width="2"><g><path d="M 14.8381 22.332869L 10 37.924769L 37.9275 26.968969L 42.3873 12.596969C 42.8843 10.995269 41.308 9.529869 39.7468 10.142369L 18.3774 18.525469C 16.6805 19.191169 15.3783 20.592069 14.8381 22.332869ZM 26.3417 51.653869L 12.1924 43.510669L 40.1199 32.554769L 53.1624 40.060669C 54.6159 40.897169 54.4564 43.043569 52.8952 43.655969L 31.5258 52.039169C 29.829 52.704769 27.9215 52.563069 26.3417 51.653869Z"></path></g></g></g><g id="g-root-tx_document_qofjjk1dfwjyg-stroke" data-item-order="0" transform="translate(263.971923828125, 39)"></g><g id="g-root-grap_1lt1ho01dfzf2a-stroke" data-item-order="0" transform="translate(491.971923828125, 134.50003051757812)"><g id="grap_1lt1ho01dfzf2a-stroke" fill="none" stroke-linecap="round" stroke-linejoin="round" stroke-miterlimit="4" stroke="#43dd93" stroke-width="2"><g><path d="M 14.9795 30.217968C 14.899323 29.55439 14.859255 28.886576 14.859512 28.218172C 14.851077 21.008221 19.967396 14.809611 27.048208 13.451112C 34.129025 12.092612 41.176105 15.957594 43.836601 22.65873M 40.496937 38.837105L 44.836502 43.176666M 55.99538 50.375946C 56.797913 51.123753 57.128262 52.249981 56.856834 53.312809C 56.585407 54.375633 55.755493 55.205547 54.692665 55.476974C 53.629841 55.748398 52.503616 55.418049 51.75581 54.61552L 43.996586 46.8363C 43.618 46.460804 43.405045 45.949661 43.405045 45.416439C 43.405045 44.883221 43.618 44.372082 43.996586 43.996586L 45.416439 42.576729C 45.791939 42.198139 46.303078 41.985191 46.8363 41.985191C 47.369522 41.985191 47.880665 42.198139 48.256157 42.576729ZM 46.016384 12.499749L 54.015579 12.499749L 54.015579 20.498945M 44.876499 29.11808C 44.471794 35.918388 39.540672 41.59457 32.863708 42.945919C 26.186749 44.29726 19.436512 40.985264 16.419355 34.877502M 53.995583 12.499749L 36.197369 30.317959C 35.417374 31.093328 34.157646 31.093328 33.377651 30.317959L 28.598133 25.518442C 27.818136 24.743073 26.558413 24.743073 25.778416 25.518442L 11.09989 40.196968"></path></g></g></g><g id="g-root-tx_comprehe_8x5j1s1dfwmbm-stroke" data-item-order="0" transform="translate(551.971923828125, 146.50003051757812)"></g><g id="g-root-tx_detailed_dcz1681dfwljd-stroke" data-item-order="0" transform="translate(552.210205078125, 182.82022094726562)"></g><g id="g-root-uneq_1umt2nk1dfzf9d-stroke" data-item-order="0" transform="translate(491.971923828125, 254.49612426757812)"><g id="uneq_1umt2nk1dfzf9d-stroke" fill="none" stroke-linecap="round" stroke-linejoin="round" stroke-miterlimit="4" stroke="#fb6762" stroke-width="2"><g><path d="M 33.997589 23.362658L 33.997589 54.359543M 28.998093 54.359543L 38.997086 54.359543M 11.999799 42.360748L 18.999096 27.43425L 25.998394 42.360748M 30.99789 20.362959C 30.99789 22.019648 32.340904 23.362658 33.997589 23.362658C 35.654278 23.362658 36.997288 22.019648 36.997288 20.362959C 36.997288 18.706272 35.654278 17.36326 33.997589 17.36326C 32.340904 17.36326 30.99789 18.706272 30.99789 20.362959ZM 18.999096 49.360046C 20.869316 49.406628 22.676809 48.684174 23.999664 47.361317C 25.322521 46.038464 26.044975 44.230972 25.998392 42.360748L 11.999799 42.360748C 11.953216 44.230972 12.675671 46.038464 13.998527 47.361317C 15.321383 48.684174 17.128876 49.406628 18.999096 49.360046ZM 55.99538 30.361956L 48.996082 15.297468L 41.996788 30.361956M 48.996082 37.361252C 47.125858 37.407833 45.318367 36.685379 43.995514 35.362522C 42.672657 34.039669 41.950203 32.232174 41.996784 30.361954L 55.99538 30.361956C 56.041962 32.232174 55.319508 34.039669 53.996655 35.362522C 52.673794 36.685379 50.866302 37.407833 48.996082 37.361252ZM 36.985291 20.15498L 53.105671 13.635634M 14.891509 29.092083L 31.727818 22.280766"></path></g></g></g><g id="g-root-tx_moderate_1hbz1dc1dfwm4k-stroke" data-item-order="0" transform="translate(551.971923828125, 266.5000305175781)"></g><g id="g-root-tx_balanced_1unfjqo1dfwkjn-stroke" data-item-order="0" transform="translate(552.210205078125, 302.8183898925781)"></g><g id="g-root-chec_hu1hgw1dfwmxb-stroke" data-item-order="0" transform="translate(491.971923828125, 374.4902648925781)"><g id="chec_hu1hgw1dfwmxb-stroke" fill="none" stroke-linecap="round" stroke-linejoin="round" stroke-miterlimit="4" stroke="#ffe711" stroke-width="2"><g><path d="M 28.246166 44.726513L 15.121486 44.726513C 12.863648 44.726513 11.033001 42.896759 11.031897 40.638924L 11.031897 15.087489C 11.033001 12.829652 12.863648 10.999899 15.121486 10.9999L 45.782406 10.9999C 48.039917 10.9999 49.869995 12.829975 49.869995 15.087489L 49.869995 28.374153M 11.031897 18.983097L 49.869995 18.983097M 11.031897 35.947395L 29.888002 35.947395M 11.031897 27.478245L 49.869995 27.478245M 26.896303 18.983097L 26.896303 44.726513M 38.269161 18.983097L 38.269161 28.374153M 44.698513 56.995281C 51.472157 56.995281 56.96328 51.504154 56.96328 44.730511C 56.96328 37.956863 51.472157 32.46574 44.698513 32.46574C 37.92487 32.46574 32.433746 37.956863 32.433746 44.730511C 32.433746 51.504154 37.92487 56.995277 44.698513 56.995277ZM 49.943989 41.17487L 44.24456 49.092075C 43.99427 49.444038 43.601154 49.667316 43.17067 49.702015C 42.741249 49.732128 42.320877 49.568527 42.024784 49.256054L 39.081078 46.196365"></path></g></g></g><g id="g-root-tx_basicana_qpohps1dfwm4m-stroke" data-item-order="0" transform="translate(551.971923828125, 386.5000305175781)"></g><g id="g-root-tx_quickstr_14150341dfwkjp-stroke" data-item-order="0" transform="translate(552.210205078125, 422.8183898925781)"></g></g></g></svg>